<svg width="256" height="256" viewBox="0 0 256 256" xmlns="http://www.w3.org/2000/svg">
  <defs>
    <linearGradient id="teaRing" x1="0%" y1="0%" x2="100%" y2="100%">
      <stop offset="0%" stop-color="#2f6b2f"/>
      <stop offset="100%" stop-color="#4e8c3b"/>
    </linearGradient>
    <linearGradient id="teaLeaf" x1="0%" y1="0%" x2="100%" y2="100%">
      <stop offset="0%" stop-color="#6ba94d"/>
      <stop offset="100%" stop-color="#2f6b2f"/>
    </linearGradient>
  </defs>
  <circle cx="128" cy="128" r="116" fill="#f8f3e8"/>
  <circle cx="128" cy="128" r="108" fill="none" stroke="url(#teaRing)" stroke-width="10"/>
  <path d="M128 182c-31 0-56-25-56-56 0-21 12-40 30-49-2 5-3 11-3 17 0 24 17 45 40 50 13 3 26 0 36-8-4 26-24 46-47 46z" fill="url(#teaLeaf)"/>
  <path d="M90 93c20 1 38 15 46 34" fill="none" stroke="#dce9cf" stroke-width="7" stroke-linecap="round"/>
  <path d="M128 52v54" fill="none" stroke="#2f6b2f" stroke-width="8" stroke-linecap="round"/>
  <circle cx="128" cy="52" r="9" fill="#2f6b2f"/>
</svg>
